<?xml version="1.0" standalone="no"?>
<!DOCTYPE svg PUBLIC "-//W3C//DTD SVG 20010904//EN"
 "http://www.w3.org/TR/2001/REC-SVG-20010904/DTD/svg10.dtd">
<svg version="1.0" xmlns="http://www.w3.org/2000/svg"
 width="200.000000pt" height="200.000000pt" viewBox="0 0 200.000000 200.000000"
 preserveAspectRatio="xMidYMid meet">
<metadata>
Created by potrace 1.11, written by Peter Selinger 2001-2013
</metadata>
<g transform="translate(0.000000,200.000000) scale(0.100000,-0.100000)"
fill="#000000" stroke="none">
<path d="M650 1675 l0 -325 -325 0 c-282 0 -325 -2 -325 -15 0 -13 43 -15 325
-15 l325 0 0 -320 0 -320 -325 0 c-282 0 -325 -2 -325 -15 0 -13 43 -15 325
-15 l325 0 0 -325 c0 -282 2 -325 15 -325 13 0 15 43 15 325 l0 325 320 0 320
0 0 -325 c0 -282 2 -325 15 -325 13 0 15 43 15 325 l0 325 325 0 c282 0 325 2
325 15 0 13 -43 15 -325 15 l-325 0 0 320 0 320 325 0 c282 0 325 2 325 15 0
13 -43 15 -325 15 l-325 0 0 325 c0 282 -2 325 -15 325 -13 0 -15 -43 -15
-325 l0 -325 -320 0 -320 0 0 325 c0 282 -2 325 -15 325 -13 0 -15 -43 -15
-325z m670 -675 l0 -320 -320 0 -320 0 0 320 0 320 320 0 320 0 0 -320z"/>
<path d="M945 1931 c-135 -35 -224 -158 -212 -291 20 -219 279 -326 446 -184
112 96 128 257 38 376 -57 75 -186 122 -272 99z"/>
<path d="M1574 1254 c-90 -33 -164 -127 -179 -226 -15 -101 46 -216 145 -272
46 -26 65 -30 125 -30 289 0 379 384 121 516 -53 27 -156 33 -212 12z"/>
<path d="M252 592 c-73 -26 -122 -69 -157 -137 -25 -48 -30 -70 -29 -124 3
-245 298 -361 465 -184 50 52 70 96 76 163 18 192 -176 345 -355 282z"/>
<path d="M945 601 c-135 -35 -224 -158 -212 -291 20 -219 279 -326 446 -184
112 96 128 257 38 376 -57 75 -186 122 -272 99z"/>
<path d="M1560 579 c-59 -26 -106 -72 -137 -134 -51 -100 -27 -230 59 -312
159 -153 432 -50 455 171 20 200 -195 357 -377 275z"/>
</g>
</svg>
